<svg xmlns="http://www.w3.org/2000/svg" viewBox="0 0 243 290"><defs><style>.a{fill:#fff;}.b{fill:#c6d12d;}</style></defs><title>Artboard 2</title><path class="a" d="M217,110.5a20.69,20.69,0,0,0-6.59-4.42,20.47,20.47,0,0,0-16,0,20.43,20.43,0,0,0-11,11,20.47,20.47,0,0,0,0,16,20.34,20.34,0,0,0,11,11,20.47,20.47,0,0,0,16,0A20.83,20.83,0,0,0,217,139.7a20.54,20.54,0,0,0,4.41-6.6,20.36,20.36,0,0,0,0-16A20.5,20.5,0,0,0,217,110.5Zm-2.25,26.95a17.47,17.47,0,1,1-24.7-24.7,17.47,17.47,0,1,1,24.7,24.7Zm4.37-41.22a33.44,33.44,0,0,0-33.44,0,33.16,33.16,0,0,0-12.15,12.15,33.44,33.44,0,0,0,0,33.44A33.31,33.31,0,0,0,185.69,154a33.44,33.44,0,0,0,33.44,0,33.31,33.31,0,0,0,12.15-12.15,33.44,33.44,0,0,0,0-33.44A33.16,33.16,0,0,0,219.13,96.23Zm11.07,40.6a29.48,29.48,0,0,1-16,16.06,30.12,30.12,0,0,1-23.47,0,29.46,29.46,0,0,1-16.06-16.06,30.12,30.12,0,0,1,0-23.47,29.48,29.48,0,0,1,16.06-16,30,30,0,0,1,23.47,0,29.51,29.51,0,0,1,16,16,30,30,0,0,1,0,23.47ZM216,101.72a27.13,27.13,0,0,0-27.08,0,27,27,0,0,0,0,46.76,27.2,27.2,0,0,0,27.08,0,26.77,26.77,0,0,0,9.84-9.84A27,27,0,0,0,216,101.72ZM223,137.05a23.87,23.87,0,0,1-8.67,8.67,23.93,23.93,0,0,1-23.91,0,23.72,23.72,0,0,1-8.67-8.67,23.93,23.93,0,0,1,0-23.91,23.76,23.76,0,0,1,8.67-8.66,23.93,23.93,0,0,1,23.91,0,23.92,23.92,0,0,1,8.67,8.66,24,24,0,0,1,0,23.91ZM239,109.68a39.16,39.16,0,0,0-21.13-21.13,39.29,39.29,0,0,0-30.83,0,39.13,39.13,0,0,0-21.14,21.13,39.29,39.29,0,0,0,0,30.83A39.19,39.19,0,0,0,187,161.65a39.41,39.41,0,0,0,30.83,0A39.22,39.22,0,0,0,239,140.51a39.29,39.29,0,0,0,0-30.83Zm-2.91,29.6a35.82,35.82,0,0,1-19.46,19.45,36.23,36.23,0,0,1-28.36,0,35.76,35.76,0,0,1-19.45-19.45,36.23,36.23,0,0,1,0-28.36,35.82,35.82,0,0,1,19.45-19.46,36.23,36.23,0,0,1,28.36,0,35.88,35.88,0,0,1,19.46,19.46,36.23,36.23,0,0,1,0,28.36ZM44,188H16.77v57.17H13.59V184.82H44a13.14,13.14,0,0,1,9.48,4A12.42,12.42,0,0,1,57.62,198a13.56,13.56,0,0,1-4,10.19A13.34,13.34,0,0,1,44,212H24.89v-3.17H44A10.44,10.44,0,0,0,51.42,206q3-2.82,3-8a9.4,9.4,0,0,0-3.18-6.91A10.12,10.12,0,0,0,44,188Zm0-6.35H10.42v63.52H7.24v-66.7H44a19.27,19.27,0,0,1,9.86,2.69,20.62,20.62,0,0,1,7.34,7.21A18.22,18.22,0,0,1,64,198a19.66,19.66,0,0,1-5.89,14.54,19.28,19.28,0,0,1-14,5.84H24.89v-3.18H44a16.3,16.3,0,0,0,11.82-4.83A16.56,16.56,0,0,0,60.79,198a15.44,15.44,0,0,0-5-11.4A16.28,16.28,0,0,0,44,181.64Zm0,12.7H23.12v50.82H20v-54H44a7.25,7.25,0,0,1,5.1,2A6.37,6.37,0,0,1,51.26,198q0,7.68-7.23,7.67H24.89v-3.17H44a4.21,4.21,0,0,0,3-1,4.62,4.62,0,0,0,1.08-3.5,3.3,3.3,0,0,0-1.17-2.58A4.2,4.2,0,0,0,44,194.34Zm22.69-9.15A24.32,24.32,0,0,1,70.32,198,27.48,27.48,0,0,1,67,211.76a24.39,24.39,0,0,1-9.16,9.31L66,245.16H62.65l-7.86-22.59a27.77,27.77,0,0,1-2.69,1l7.37,21.62H56.12l-7.19-20.87c-.27.06-1.21.16-2.83.31l6.84,20.56H49.59l-6.75-20.47H40l6.44,20.47H43.06l-6.48-20.47H24.89v-3.18H44a22.6,22.6,0,0,0,11.47-3A22.92,22.92,0,0,0,64,210a23.4,23.4,0,0,0,3.17-12A21.34,21.34,0,0,0,64,186.77a23.84,23.84,0,0,0-8.49-8.35A22.26,22.26,0,0,0,44,175.29h-40v69.88H.89v-73H44a25.36,25.36,0,0,1,13,3.55A26.8,26.8,0,0,1,66.72,185.19ZM94,172.11h3.18v73H94Zm-12.71,0h3.18v73H81.33Zm6.36,0h3.17v73H87.69Zm12.7,0h3.18v73h-3.18Zm9.34,36.53,18.7,36.52h-3.52L106.2,208.64l10.32-36.53h3.53Zm21.35,0,18.66,36.52h-3.53l-18.66-36.52,10.28-36.53h3.52Zm-7.1,0,18.66,36.52h-3.53l-18.66-36.52,10.27-36.53h3.53Zm-7.1,0,18.66,36.52H132l-18.66-36.52,10.27-36.53h3.53Zm-32.51-47H81.06L61.74,88.57h3.31l17.69,66.78,17.69-66.78h3.3Zm5.51-41.16L81.46,88.57h3.3l6.8,25.72ZM71.62,88.57l13.32,50.6-1.5,6.26L68.36,88.57Zm38.64,0L90.94,161.62H87.67L107,88.57ZM86.62,133,74.93,88.57h3.22L88.25,127Zm59.95-44.47h3.22l-19.33,73.05H127.2ZM137,161.62h-3.27l19.32-73.05h3.27ZM116.83,88.57,97.51,161.62H94.25l19.32-73.05Zm26.83,73.05h-3.31l19.32-73.05H163Zm-23.08,0h3.31l19.37-73.05H140l-7.9,29.73-8.6-29.64v-.09H120.1l0,.09-19.32,73h3.31l7.81-29.6Zm1.28-67,8.56,29.82-1.63,6.26L120.14,101Zm-3.3,12.44,8.59,29.78-1.67,6.22-8.6-29.74Zm-3.31,12.48,8.6,29.73-1.68,6.31-8.56-29.82ZM58.45,69.76a40.47,40.47,0,0,0,12.84,8.59,39.77,39.77,0,0,0,31.26,0,40.58,40.58,0,0,0,12.84-8.59l.5-.52.5.52a40.42,40.42,0,0,0,12.83,8.59,39.8,39.8,0,0,0,31.27,0,39.76,39.76,0,0,0,21.42-21.42,39.89,39.89,0,0,0,0-31.26A39.67,39.67,0,0,0,160.49,4.25a39.8,39.8,0,0,0-31.27,0A39.67,39.67,0,0,0,107.8,25.67a39.2,39.2,0,0,0-3.19,15.63c0,.12,0,.24,0,.35A17.71,17.71,0,0,1,86.92,59,17.72,17.72,0,0,1,69.21,41.3,17.72,17.72,0,0,1,86.92,23.59h0V20.37h0A20.5,20.5,0,0,0,78.8,22,20.71,20.71,0,0,0,67.64,33.18a20.78,20.78,0,0,0,0,16.23,21.18,21.18,0,0,0,4.48,6.69,21,21,0,0,0,6.68,4.47,20.69,20.69,0,0,0,16.24,0,20.46,20.46,0,0,0,10.64-10.08,38.52,38.52,0,0,0,1.28,4.3A24.05,24.05,0,0,1,99,62.21a24.26,24.26,0,0,1-24.24,0A24.11,24.11,0,0,1,66,53.42a24.29,24.29,0,0,1,0-24.24,24.14,24.14,0,0,1,8.79-8.79,23.61,23.61,0,0,1,12.12-3.24h0V13.93h0A27.32,27.32,0,0,0,59.55,41.3,26.8,26.8,0,0,0,63.22,55a27.09,27.09,0,0,0,10,10,27.36,27.36,0,0,0,35.22-6.73c.51,1.08,1,2.12,1.63,3.12-.47.54-1,1.07-1.45,1.57a30.62,30.62,0,0,1-9.77,6.51,30.47,30.47,0,0,1-23.8,0A29.84,29.84,0,0,1,58.75,53.19a30.44,30.44,0,0,1,0-23.79A29.78,29.78,0,0,1,75,13.13a30,30,0,0,1,11.9-2.42h0V7.49h0A33,33,0,0,0,70,12,33.62,33.62,0,0,0,57.65,24.35,33,33,0,0,0,53.11,41.3a33,33,0,0,0,4.54,17A33.77,33.77,0,0,0,70,70.57a33.91,33.91,0,0,0,33.9,0,33.74,33.74,0,0,0,7.92-6.37c.62.92,1.27,1.8,2,2.65l-.63.65a37.18,37.18,0,0,1-11.83,7.9,36.75,36.75,0,0,1-28.76,0A36.37,36.37,0,0,1,52.82,55.68a36.75,36.75,0,0,1,0-28.76A36.29,36.29,0,0,1,72.54,7.2,36.33,36.33,0,0,1,86.92,4.27h0V1.05h0a39.21,39.21,0,0,0-15.63,3.2A39.59,39.59,0,0,0,49.87,25.67a39.77,39.77,0,0,0,0,31.26A40.56,40.56,0,0,0,58.45,69.76Zm57.44-5.38a33.07,33.07,0,0,1-2-2.73c.69-.93,1.35-1.91,2-2.92a34.58,34.58,0,0,0,2,2.92C117.23,62.59,116.58,63.51,115.89,64.38Zm4.83-22.69v0h0V41.3A23.52,23.52,0,0,1,124,29.18a24.14,24.14,0,0,1,8.79-8.79,24.29,24.29,0,0,1,24.24,0,24.18,24.18,0,0,1,8.78,8.79A23.52,23.52,0,0,1,169,41.3a23.52,23.52,0,0,1-3.24,12.12A24.18,24.18,0,0,1,157,62.21a24.29,24.29,0,0,1-24.24,0,24.08,24.08,0,0,1-7.93-7.42,38.06,38.06,0,0,0,1.28-4.31,20.72,20.72,0,0,0,4,5.62,21.18,21.18,0,0,0,6.69,4.48,20.78,20.78,0,0,0,16.23,0,21.18,21.18,0,0,0,6.69-4.48,21,21,0,0,0,4.47-6.68,20.81,20.81,0,0,0,0-16.24A20.65,20.65,0,0,0,153,22a20.67,20.67,0,0,0-16.23,0,20.65,20.65,0,0,0-11.16,11.15,20.51,20.51,0,0,0-1.66,8.12c0,.16,0,.32,0,.49a36.48,36.48,0,0,1-1.27,9.11A23.63,23.63,0,0,1,120.72,41.69Zm.51,13.46-.21.53c-.43,1-.91,2-1.4,2.94a30.5,30.5,0,0,1-1.93-3.29,34,34,0,0,0,1.6-4.21A27.88,27.88,0,0,0,121.15,55Zm5.92-13.85a17.71,17.71,0,1,1,35.41,0,17.7,17.7,0,0,1-35.4.35h0C127.16,41.52,127.15,41.41,127.15,41.3Zm-3.79,17A27.44,27.44,0,0,0,158.58,65a27.38,27.38,0,0,0,0-47.4,27.5,27.5,0,0,0-27.45,0,27.26,27.26,0,0,0-13.64,23.7c0,.15,0,.29,0,.43a30.22,30.22,0,0,1-1.61,9.37,30.23,30.23,0,0,1-1.62-9.37.28.28,0,0,0,0-.09h0V41.3a30.14,30.14,0,0,1,2.41-11.9A29.84,29.84,0,0,1,133,13.13a30.44,30.44,0,0,1,23.79,0A29.84,29.84,0,0,1,173,29.4a30.44,30.44,0,0,1,0,23.79,29.81,29.81,0,0,1-16.28,16.28,30.44,30.44,0,0,1-23.79,0,30.48,30.48,0,0,1-9.77-6.5c-.51-.51-1-1-1.45-1.58Q122.61,59.89,123.36,58.27ZM109.1,50.9a36.89,36.89,0,0,1,1.65-24A36.35,36.35,0,0,1,130.48,7.2a36.73,36.73,0,0,1,28.75,0A36.29,36.29,0,0,1,179,26.92a36.75,36.75,0,0,1,0,28.76A36.37,36.37,0,0,1,159.23,75.4a36.73,36.73,0,0,1-28.75,0,36.9,36.9,0,0,1-11.83-7.9c-.22-.21-.42-.43-.63-.65.69-.85,1.34-1.73,2-2.64a34.22,34.22,0,0,0,7.93,6.36,33.89,33.89,0,0,0,33.89,0,33.62,33.62,0,0,0,12.32-12.32,33,33,0,0,0,4.54-17,33,33,0,0,0-4.54-16.95A33.62,33.62,0,0,0,161.8,12a33.89,33.89,0,0,0-33.89,0,33.73,33.73,0,0,0-12.33,12.32,33.11,33.11,0,0,0-4.53,16.95c0,.13,0,.27,0,.4A23.59,23.59,0,0,1,109.1,50.9Zm3.06,7.72q-.75-1.42-1.41-2.94c-.07-.18-.13-.35-.21-.53l.08-.12a27.42,27.42,0,0,0,1.87-3.91,30.61,30.61,0,0,0,1.6,4.21A32.24,32.24,0,0,1,112.16,58.62Z"/><path class="a" d="M10.41,264.14a8,8,0,0,0,1.92-.2,4.83,4.83,0,0,0,1.36-.54l.69,2.46a6.56,6.56,0,0,1-1.68.62,11,11,0,0,1-2.63.27,9.13,9.13,0,0,1-3.23-.56,7.15,7.15,0,0,1-4.21-4.13A9.18,9.18,0,0,1,2,258.7a9.06,9.06,0,0,1,.58-3.3,7.3,7.3,0,0,1,1.63-2.53,7.12,7.12,0,0,1,2.54-1.61,9.42,9.42,0,0,1,3.35-.57,9.42,9.42,0,0,1,2.6.3,8.62,8.62,0,0,1,1.66.64l-.76,2.49a7.27,7.27,0,0,0-1.42-.58,5.79,5.79,0,0,0-1.73-.24,5.87,5.87,0,0,0-1.9.3,4,4,0,0,0-1.55,1,4.59,4.59,0,0,0-1,1.67,8.19,8.19,0,0,0,0,4.9,4.71,4.71,0,0,0,1,1.69,4.46,4.46,0,0,0,1.53,1A5.27,5.27,0,0,0,10.41,264.14Z"/><path class="a" d="M23.26,250.69a8.39,8.39,0,0,1,3,.55,6.82,6.82,0,0,1,2.42,1.56,7.17,7.17,0,0,1,1.58,2.52,9.45,9.45,0,0,1,.58,3.43,8.8,8.8,0,0,1-.59,3.34,7,7,0,0,1-4.07,4.1,8.37,8.37,0,0,1-3.07.56,8.61,8.61,0,0,1-3.05-.53,6.54,6.54,0,0,1-2.41-1.55,7.09,7.09,0,0,1-1.59-2.51,9.31,9.31,0,0,1-.58-3.41,9.2,9.2,0,0,1,.59-3.37,7.45,7.45,0,0,1,1.63-2.53,6.86,6.86,0,0,1,2.44-1.6A8.37,8.37,0,0,1,23.26,250.69Zm-4.16,8.06a7.87,7.87,0,0,0,.33,2.4,4.94,4.94,0,0,0,.9,1.69,3.54,3.54,0,0,0,1.32,1,3.81,3.81,0,0,0,1.61.34,3.76,3.76,0,0,0,1.59-.34,3.3,3.3,0,0,0,1.29-1,5.07,5.07,0,0,0,.86-1.69,7.88,7.88,0,0,0,.32-2.4,8.16,8.16,0,0,0-.33-2.47,5,5,0,0,0-.9-1.71,3.49,3.49,0,0,0-1.32-1,3.93,3.93,0,0,0-1.61-.33,3.74,3.74,0,0,0-1.6.35,3.57,3.57,0,0,0-1.28,1,5.08,5.08,0,0,0-.86,1.71A8.35,8.35,0,0,0,19.1,258.75Z"/><path class="a" d="M35.05,251l1.7,7.16c0,.21.11.53.19.94s.15.85.24,1.31.18.93.25,1.39.13.84.18,1.14h0c.05-.32.11-.7.19-1.15s.15-.91.24-1.38.18-.9.27-1.3l.21-.95,1.8-7.16h3.52l1.8,7.14c.05.21.11.52.2.93s.17.85.27,1.33.19.94.27,1.4.15.84.19,1.14h.05c0-.32.12-.7.2-1.15s.17-.9.26-1.36.18-.9.26-1.32.15-.74.19-1L49.21,251h3.4l-4,15.51H45l-2-8c-.17-.65-.32-1.3-.46-1.94s-.27-1.31-.41-2h0c-.14.68-.27,1.34-.4,2s-.28,1.28-.44,1.95l-1.92,8H35.67l-4-15.51Z"/><path class="a" d="M61.05,250.69a8.49,8.49,0,0,1,3.06.55,6.78,6.78,0,0,1,2.41,1.56,7.33,7.33,0,0,1,1.59,2.52,9.68,9.68,0,0,1,.57,3.43,8.8,8.8,0,0,1-.59,3.34,7,7,0,0,1-4.07,4.1,8.34,8.34,0,0,1-3.07.56,8.65,8.65,0,0,1-3.05-.53,6.62,6.62,0,0,1-2.41-1.55,7.23,7.23,0,0,1-1.59-2.51,9.31,9.31,0,0,1-.58-3.41,9.2,9.2,0,0,1,.59-3.37,7.6,7.6,0,0,1,1.63-2.53,6.9,6.9,0,0,1,2.45-1.6A8.28,8.28,0,0,1,61.05,250.69Zm-4.16,8.06a7.87,7.87,0,0,0,.33,2.4,5.3,5.3,0,0,0,.9,1.69,3.54,3.54,0,0,0,1.32,1,3.81,3.81,0,0,0,1.61.34,3.76,3.76,0,0,0,1.59-.34,3.3,3.3,0,0,0,1.29-1,5.07,5.07,0,0,0,.86-1.69,7.88,7.88,0,0,0,.32-2.4,8.16,8.16,0,0,0-.33-2.47,5,5,0,0,0-.9-1.71,3.38,3.38,0,0,0-1.31-1,4,4,0,0,0-1.62-.33,3.78,3.78,0,0,0-1.6.35,3.57,3.57,0,0,0-1.28,1,5.08,5.08,0,0,0-.86,1.71A8.35,8.35,0,0,0,56.89,258.75Z"/><path class="a" d="M71.1,251H77a6.27,6.27,0,0,1,2.3.38,4.82,4.82,0,0,1,1.67,1,4.29,4.29,0,0,1,1,1.53,5.27,5.27,0,0,1,.33,1.88,4.48,4.48,0,0,1-.28,1.66,4.76,4.76,0,0,1-.71,1.26,4.4,4.4,0,0,1-1,.88,6.83,6.83,0,0,1-1,.58l3.79,6.31H79.22l-3-5.72H74.45v5.72H71.1Zm3.35,7.21h1.33a4,4,0,0,0,2.17-.54,2,2,0,0,0,.85-1.8,2.17,2.17,0,0,0-.67-1.71,2.94,2.94,0,0,0-2-.6H74.45Z"/><path class="a" d="M85.14,266.48V251h3.37v6.52L93.85,251H98l-5.79,6.77,6.28,8.74H94.37l-4.58-6.63-1.28,1.36v5.27Z"/><path class="a" d="M103.68,251v15.51H100.3V251Z"/><path class="a" d="M106.93,251H110l5.35,8.17c.36.56.69,1.1,1,1.64A12.64,12.64,0,0,1,117,262h0c-.1-1.07-.15-2.13-.15-3.19V251H120v15.51H117l-5-7.54c-.21-.33-.42-.67-.62-1s-.4-.69-.58-1l-.48-.9a7,7,0,0,1-.31-.68h0c.08,1.14.13,2.22.14,3.27s0,2.1,0,3.18v4.71h-3.15Z"/><path class="a" d="M130.69,250.69a12.47,12.47,0,0,1,2.58.25,10,10,0,0,1,2,.67l-.71,2.29a7.77,7.77,0,0,0-1.77-.62,8.63,8.63,0,0,0-1.8-.2,5.76,5.76,0,0,0-1.91.32,4,4,0,0,0-1.56,1,5,5,0,0,0-1.06,1.76,7.61,7.61,0,0,0-.39,2.58,6.27,6.27,0,0,0,1.19,4.12,4.18,4.18,0,0,0,3.41,1.44,5.52,5.52,0,0,0,1.92-.25v-3.62h-2.56v-2.51h5.79v7.86a11.85,11.85,0,0,1-2.24.69,14.33,14.33,0,0,1-2.93.27,9.62,9.62,0,0,1-3.22-.52,7.16,7.16,0,0,1-2.58-1.54,7.26,7.26,0,0,1-1.73-2.51,8.93,8.93,0,0,1-.62-3.43,9.12,9.12,0,0,1,.62-3.46,7.25,7.25,0,0,1,1.71-2.53,7.51,7.51,0,0,1,2.58-1.54A9.66,9.66,0,0,1,130.69,250.69Z"/><path class="a" d="M154.3,251v2.61h-6.48v4.11h5.93v2.58h-5.93v6.21h-3.37V251Z"/><path class="a" d="M156.55,251h10.09v2.61h-6.72v3.54H166v2.59h-6.08v4.16h6.8v2.61H156.55Z"/><path class="a" d="M174.26,250.69a10.65,10.65,0,0,1,2.66.3,10.25,10.25,0,0,1,2.07.76l-.77,2.51a12.82,12.82,0,0,0-1.94-.75,7,7,0,0,0-1.83-.26,3.13,3.13,0,0,0-1.83.47A1.49,1.49,0,0,0,172,255a1.43,1.43,0,0,0,.57,1.23,6.2,6.2,0,0,0,1.82.81l1.47.47a6.69,6.69,0,0,1,2.9,1.75,4,4,0,0,1,1,2.78,4.6,4.6,0,0,1-.37,1.85,4.11,4.11,0,0,1-1.1,1.5,5.47,5.47,0,0,1-1.85,1,8.38,8.38,0,0,1-2.59.37,11.48,11.48,0,0,1-5.09-1.13l.76-2.52a12.19,12.19,0,0,0,2.07.8,7.75,7.75,0,0,0,2.12.29,3.37,3.37,0,0,0,2-.48,1.57,1.57,0,0,0,.66-1.34,1.66,1.66,0,0,0-.11-.58,1.34,1.34,0,0,0-.41-.54,3.35,3.35,0,0,0-.8-.52,8.57,8.57,0,0,0-1.31-.51l-1.31-.44a10.31,10.31,0,0,1-1.57-.69,5,5,0,0,1-1.22-.91,3.72,3.72,0,0,1-.79-1.22,4.33,4.33,0,0,1-.28-1.64,4.58,4.58,0,0,1,.37-1.86A4,4,0,0,1,170,252a5.23,5.23,0,0,1,1.8-1A8,8,0,0,1,174.26,250.69Z"/><path class="a" d="M192.91,251v2.65h-4.38v12.86h-3.37V253.62h-4.29V251Z"/><path class="a" d="M198.38,251v15.51H195V251Z"/><path class="a" d="M203.78,251l2.58,7.92c.09.27.18.58.3.95s.23.75.34,1.15.23.78.34,1.18.19.75.25,1.06h.08a21.05,21.05,0,0,1,.58-2.16c.25-.81.49-1.54.7-2.2l2.61-7.9H215l-5.54,15.51h-3.67L200.21,251Z"/><path class="a" d="M219.12,251h3.49l5.74,15.51h-3.57l-1.21-3.57h-5.51l-1.21,3.57h-3.52Zm-.3,9.45h3.94l-.71-2.07c-.23-.64-.45-1.28-.64-1.93s-.39-1.3-.57-2h-.05c-.18.63-.38,1.26-.59,1.91s-.44,1.31-.66,2Z"/><path class="a" d="M230.07,251h3.38v12.85h6.25v2.66h-9.63Z"/><path class="b" d="M6.09,273.32a4.27,4.27,0,0,1,2.64.72,2.54,2.54,0,0,1,.94,2.14,2.21,2.21,0,0,1-.58,1.63,3.22,3.22,0,0,1-1.47.82,3.25,3.25,0,0,1,.94.31,2.55,2.55,0,0,1,.75.59,2.7,2.7,0,0,1,.52.85,3.23,3.23,0,0,1,.19,1.11,2.79,2.79,0,0,1-.31,1.29,2.88,2.88,0,0,1-.85,1,3.91,3.91,0,0,1-1.27.65,5.29,5.29,0,0,1-1.62.24H2.69V273.32Zm-1.74,4.73H5.7a4.83,4.83,0,0,0,.86-.07,2,2,0,0,0,.73-.27,1.41,1.41,0,0,0,.5-.53A1.74,1.74,0,0,0,8,276.3,1.42,1.42,0,0,0,7.4,275a2.77,2.77,0,0,0-1.56-.39H4.35Zm0,5.27H5.79a4.86,4.86,0,0,0,1-.09,2.25,2.25,0,0,0,.79-.34,1.66,1.66,0,0,0,.55-.62,2,2,0,0,0,.21-.94A1.59,1.59,0,0,0,8,280.4a1.81,1.81,0,0,0-.63-.6,3,3,0,0,0-.9-.34,5.86,5.86,0,0,0-1-.1H4.35Z"/><path class="b" d="M19,280.61H12.91v.07a2.92,2.92,0,0,0,.77,2.16,2.84,2.84,0,0,0,2.08.75,6.29,6.29,0,0,0,1.21-.1,8.38,8.38,0,0,0,1.16-.36l.33,1.17a5.89,5.89,0,0,1-1.24.37,7.32,7.32,0,0,1-1.52.15,6,6,0,0,1-1.72-.25,3.92,3.92,0,0,1-1.41-.79,3.49,3.49,0,0,1-1-1.36,4.94,4.94,0,0,1-.35-2,5.39,5.39,0,0,1,.29-1.8,4,4,0,0,1,.84-1.37,3.9,3.9,0,0,1,1.31-.89,4.66,4.66,0,0,1,1.72-.31,3.8,3.8,0,0,1,1.46.27,3.17,3.17,0,0,1,1.13.76,3.3,3.3,0,0,1,.72,1.17,4.27,4.27,0,0,1,.25,1.51Zm-1.64-1.14a3,3,0,0,0-.12-.87,1.77,1.77,0,0,0-.36-.71,1.59,1.59,0,0,0-.62-.49,2.08,2.08,0,0,0-.91-.18,2.19,2.19,0,0,0-1.62.63,2.89,2.89,0,0,0-.76,1.66Z"/><path class="b" d="M20.74,284.66V276.2h1.19l.27,1.69a2.8,2.8,0,0,1,1-1.32,2.75,2.75,0,0,1,1.62-.5,3.31,3.31,0,0,1,.77.07,3.69,3.69,0,0,1,.56.18l-.31,1.39a2.87,2.87,0,0,0-.47-.18,2.3,2.3,0,0,0-.62-.07,2.58,2.58,0,0,0-1,.18,2.16,2.16,0,0,0-.77.54,2.44,2.44,0,0,0-.52.89,3.49,3.49,0,0,0-.19,1.21v4.38Z"/><path class="b" d="M27.82,284.66V271.88h1.54v12.78Z"/><path class="b" d="M32.61,274a1,1,0,0,1-.71-.28.92.92,0,0,1-.3-.69,1,1,0,0,1,.3-.71,1,1,0,0,1,.71-.28,1,1,0,0,1,.7.28.93.93,0,0,1,.31.71.89.89,0,0,1-.31.69A1,1,0,0,1,32.61,274Zm-.79,10.64V276.2H33.4v8.46Z"/><path class="b" d="M37.36,284.66H35.77V276.2H37l.23,1.17a4.87,4.87,0,0,1,1.32-1,3.66,3.66,0,0,1,1.6-.33,2.54,2.54,0,0,1,2.77,2.75v5.84H41.35v-5.6a1.77,1.77,0,0,0-.4-1.23,1.54,1.54,0,0,0-1.23-.46,3.22,3.22,0,0,0-2.36,1.13Z"/><path class="b" d="M46,284.82a1,1,0,0,1-.7-.4,1.35,1.35,0,0,1-.23-.75,1.16,1.16,0,0,1,.3-.78,1,1,0,0,1,.83-.34,1.67,1.67,0,0,1,.44.06,1,1,0,0,1,.42.26,1.43,1.43,0,0,1,.31.52,2.35,2.35,0,0,1,.13.87A3.08,3.08,0,0,1,46.9,286a4,4,0,0,1-1.42,1.28L45,286.6a2.82,2.82,0,0,0,.83-.68,2.24,2.24,0,0,0,.5-1.05Z"/><path class="b" d="M58.38,273.15a9.92,9.92,0,0,1,1.8.15,5,5,0,0,1,1.48.5l-.4,1.3a5.92,5.92,0,0,0-1.3-.45,6.08,6.08,0,0,0-1.38-.15,4.73,4.73,0,0,0-1.51.24,3.24,3.24,0,0,0-1.27.76,3.67,3.67,0,0,0-.87,1.39A5.88,5.88,0,0,0,54.6,279a4.91,4.91,0,0,0,1,3.32,3.52,3.52,0,0,0,2.79,1.13,8,8,0,0,0,1.18-.07,4.77,4.77,0,0,0,1-.25V280H58.38v-1.3h3.69v5.47a9.4,9.4,0,0,1-3.69.67,6.2,6.2,0,0,1-2.18-.38,4.94,4.94,0,0,1-1.78-1.12,5.08,5.08,0,0,1-1.18-1.81A6.7,6.7,0,0,1,52.8,279a6.87,6.87,0,0,1,.43-2.52,5.17,5.17,0,0,1,1.16-1.83,4.82,4.82,0,0,1,1.76-1.12A6.49,6.49,0,0,1,58.38,273.15Z"/><path class="b" d="M71.36,280.61H65.3v.07a2.92,2.92,0,0,0,.76,2.16,2.84,2.84,0,0,0,2.08.75,6.4,6.4,0,0,0,1.22-.1,8.82,8.82,0,0,0,1.16-.36l.32,1.17a6,6,0,0,1-1.23.37,7.39,7.39,0,0,1-1.52.15,5.91,5.91,0,0,1-1.72-.25,3.88,3.88,0,0,1-1.42-.79,3.71,3.71,0,0,1-1-1.36,5.67,5.67,0,0,1-.05-3.78,3.74,3.74,0,0,1,2.14-2.26,4.66,4.66,0,0,1,1.72-.31,3.85,3.85,0,0,1,1.47.27,3.22,3.22,0,0,1,1.12.76,3.3,3.3,0,0,1,.72,1.17,4.27,4.27,0,0,1,.25,1.51Zm-1.64-1.14a3.05,3.05,0,0,0-.11-.87,2.07,2.07,0,0,0-.36-.71,1.67,1.67,0,0,0-.62-.49,2.4,2.4,0,0,0-2.53.45,2.83,2.83,0,0,0-.77,1.66Z"/><path class="b" d="M73.12,284.66V276.2h1.19l.27,1.69a2.87,2.87,0,0,1,1-1.32,2.75,2.75,0,0,1,1.62-.5,3.31,3.31,0,0,1,.77.07,3.69,3.69,0,0,1,.56.18l-.3,1.39a3.41,3.41,0,0,0-.48-.18,2.25,2.25,0,0,0-.62-.07,2.49,2.49,0,0,0-1,.18,2.11,2.11,0,0,0-.78.54,2.58,2.58,0,0,0-.52.89,3.49,3.49,0,0,0-.19,1.21v4.38Z"/><path class="b" d="M81.42,284.66H79.84V276.2h1.22l.24,1.17a5.14,5.14,0,0,1,1.27-.95,3.64,3.64,0,0,1,1.64-.35,2.69,2.69,0,0,1,1.48.37,2.27,2.27,0,0,1,.86,1,4.53,4.53,0,0,1,1.39-1,3.82,3.82,0,0,1,1.67-.36,2.49,2.49,0,0,1,2,.73,3,3,0,0,1,.65,2v5.84H90.64v-5.55a2,2,0,0,0-.36-1.29,1.44,1.44,0,0,0-1.19-.45,3.16,3.16,0,0,0-2.29,1.09.55.55,0,0,1,0,.18v6H85.24v-5.55a2,2,0,0,0-.36-1.29,1.44,1.44,0,0,0-1.19-.45,3,3,0,0,0-2.27,1.15Z"/><path class="b" d="M94.27,277l.81-.38a5.89,5.89,0,0,1,1.53-.45,7.85,7.85,0,0,1,.87-.05,5.11,5.11,0,0,1,1.28.15,2.62,2.62,0,0,1,1,.52,2.42,2.42,0,0,1,.66.94,3.91,3.91,0,0,1,.23,1.47v5.51H99.35l-.2-.94h0a3.29,3.29,0,0,1-1.23.85,4.27,4.27,0,0,1-1.47.25,3.67,3.67,0,0,1-1.13-.17,2.84,2.84,0,0,1-.89-.49,2.06,2.06,0,0,1-.58-.76,2.37,2.37,0,0,1-.21-1,2.29,2.29,0,0,1,1-2,5,5,0,0,1,2.78-.69h1.62V279a1.42,1.42,0,0,0-.47-1.25,2.14,2.14,0,0,0-1.26-.33,4.49,4.49,0,0,0-1.07.15,6,6,0,0,0-1.37.58Zm4.81,3.8-1.33,0a3.36,3.36,0,0,0-1.92.47,1.32,1.32,0,0,0-.57,1.07,1.48,1.48,0,0,0,.13.64,1,1,0,0,0,.33.41,1.44,1.44,0,0,0,.49.2,2.2,2.2,0,0,0,.58.07,2.89,2.89,0,0,0,2.29-1.17Z"/><path class="b" d="M104.47,284.66h-1.59V276.2h1.25l.23,1.17a4.87,4.87,0,0,1,1.32-1,3.72,3.72,0,0,1,1.6-.33,2.54,2.54,0,0,1,2.77,2.75v5.84h-1.59v-5.6a1.77,1.77,0,0,0-.4-1.23,1.54,1.54,0,0,0-1.23-.46,3.24,3.24,0,0,0-2.36,1.13Z"/><path class="b" d="M111.1,276.2h1.69l1.8,4.84.62,2h0l.61-2,1.64-4.84h1.62l-3.26,9.18a6.76,6.76,0,0,1-1.35,2.39,4.8,4.8,0,0,1-2,1.26l-.68-1.26a4.69,4.69,0,0,0,1.5-.94,3.91,3.91,0,0,0,1-1.69l.16-.48Z"/><path class="b" d="M146.88,189.15a9.34,9.34,0,0,1,1.6.14,6,6,0,0,1,1.53.49l-.4,1.37a7.51,7.51,0,0,0-1.39-.51,5.44,5.44,0,0,0-1.27-.15,2.6,2.6,0,0,0-1.62.45,1.48,1.48,0,0,0-.6,1.26,1.43,1.43,0,0,0,.44,1.09,3.68,3.68,0,0,0,1.45.72l1.14.36A4.35,4.35,0,0,1,150,195.7a3,3,0,0,1,.63,1.88,3.1,3.1,0,0,1-.29,1.34,3.17,3.17,0,0,1-.83,1,3.79,3.79,0,0,1-1.25.64,5.31,5.31,0,0,1-1.59.23,10.52,10.52,0,0,1-1.75-.15,7.45,7.45,0,0,1-1.77-.57l.39-1.35a7.77,7.77,0,0,0,1.51.56,6.58,6.58,0,0,0,1.55.18,3,3,0,0,0,1.66-.45,1.51,1.51,0,0,0,.68-1.34,1.72,1.72,0,0,0-.1-.6,1.49,1.49,0,0,0-.34-.53,2.55,2.55,0,0,0-.66-.47,6.44,6.44,0,0,0-1-.41l-1.13-.36a4.64,4.64,0,0,1-1.91-1.08,2.54,2.54,0,0,1-.67-1.86,3,3,0,0,1,1-2.36A4.2,4.2,0,0,1,146.88,189.15Z"/><path class="b" d="M159.55,196.61h-6.07v.07a2.92,2.92,0,0,0,.77,2.16,2.84,2.84,0,0,0,2.08.75,6.29,6.29,0,0,0,1.21-.1,8.82,8.82,0,0,0,1.16-.36l.33,1.17a5.89,5.89,0,0,1-1.24.37,7.32,7.32,0,0,1-1.52.15,6,6,0,0,1-1.72-.25,3.92,3.92,0,0,1-1.41-.79,3.49,3.49,0,0,1-1-1.36,4.94,4.94,0,0,1-.35-2,5.15,5.15,0,0,1,.29-1.8,4,4,0,0,1,.84-1.37,3.8,3.8,0,0,1,1.31-.89,4.65,4.65,0,0,1,1.71-.31,3.85,3.85,0,0,1,1.47.27,3.26,3.26,0,0,1,1.13.76,3.3,3.3,0,0,1,.72,1.17,4.51,4.51,0,0,1,.25,1.51Zm-1.64-1.14a3,3,0,0,0-.12-.87,1.91,1.91,0,0,0-.36-.71,1.67,1.67,0,0,0-.62-.49,2.13,2.13,0,0,0-.92-.18,2.17,2.17,0,0,0-1.61.63,2.82,2.82,0,0,0-.76,1.66Z"/><path class="b" d="M164.87,200.82a4,4,0,0,1-1.1-.16,3.08,3.08,0,0,1-.91-.44v4.58h-1.57V192.07h1.32l.23,1.1a5.19,5.19,0,0,1,1.1-.78,3.12,3.12,0,0,1,1.44-.32,3.39,3.39,0,0,1,2.66,1.08,4.47,4.47,0,0,1,1,3.1,5.33,5.33,0,0,1-.35,2.05,4,4,0,0,1-.93,1.42,3.81,3.81,0,0,1-1.34.83A4.39,4.39,0,0,1,164.87,200.82Zm.17-7.45a2.3,2.3,0,0,0-1.32.37,3.62,3.62,0,0,0-.86.74V199a3.06,3.06,0,0,0,.88.45,3,3,0,0,0,.94.14,2.8,2.8,0,0,0,1-.17,2.17,2.17,0,0,0,.86-.56,3,3,0,0,0,.61-1,4.39,4.39,0,0,0,.24-1.55,3.54,3.54,0,0,0-.57-2.13A2,2,0,0,0,165,193.37Z"/><path class="b" d="M175.1,193.38h-2.49v4.92a1,1,0,0,0,.32.84,1.37,1.37,0,0,0,.82.22,4.7,4.7,0,0,0,.79-.08,5.61,5.61,0,0,0,.76-.19l.25,1.21a5.63,5.63,0,0,1-.92.25,6.28,6.28,0,0,1-1.17.11,2.64,2.64,0,0,1-1.84-.55,2.13,2.13,0,0,1-.57-1.6v-5.13h-1.26V192.2h1.26v-2.7h1.56v2.7h2.49Z"/><path class="b" d="M184.12,196.61h-6.07v.07a2.92,2.92,0,0,0,.76,2.16,2.85,2.85,0,0,0,2.08.75,6.4,6.4,0,0,0,1.22-.1,8.82,8.82,0,0,0,1.16-.36l.32,1.17a5.79,5.79,0,0,1-1.23.37,7.32,7.32,0,0,1-1.52.15,6,6,0,0,1-1.72-.25,3.92,3.92,0,0,1-1.41-.79,3.49,3.49,0,0,1-1-1.36,4.93,4.93,0,0,1-.36-2,5.15,5.15,0,0,1,.3-1.8,4,4,0,0,1,.84-1.37,3.86,3.86,0,0,1,1.3-.89,4.7,4.7,0,0,1,1.72-.31,3.85,3.85,0,0,1,1.47.27,3.25,3.25,0,0,1,1.84,1.93,4.27,4.27,0,0,1,.26,1.51Zm-1.64-1.14a3,3,0,0,0-.12-.87,2.07,2.07,0,0,0-.36-.71,1.67,1.67,0,0,0-.62-.49,2.13,2.13,0,0,0-.92-.18,2.17,2.17,0,0,0-1.61.63,2.82,2.82,0,0,0-.76,1.66Z"/><path class="b" d="M187.48,200.66h-1.59V192.2h1.23l.23,1.17a5.19,5.19,0,0,1,1.28-1,3.61,3.61,0,0,1,1.64-.35,2.63,2.63,0,0,1,1.47.37,2.23,2.23,0,0,1,.87,1,4.61,4.61,0,0,1,1.38-1,3.9,3.9,0,0,1,1.68-.36,2.48,2.48,0,0,1,2,.73,2.91,2.91,0,0,1,.66,2v5.84h-1.59v-5.55a2,2,0,0,0-.36-1.29,1.42,1.42,0,0,0-1.18-.45,3.16,3.16,0,0,0-2.29,1.09,1.1,1.1,0,0,1,0,.18v6h-1.59v-5.55a2,2,0,0,0-.36-1.29,1.42,1.42,0,0,0-1.18-.45,3,3,0,0,0-2.27,1.15Z"/><path class="b" d="M208.37,196.43a5,5,0,0,1-.31,1.81,4.33,4.33,0,0,1-.82,1.39,3.67,3.67,0,0,1-2.72,1.19,4,4,0,0,1-1.45-.24,3.5,3.5,0,0,1-1.16-.72h0l-.16.8h-1.13V187.88h1.56v5.38a3.71,3.71,0,0,1,1.27-.9,3.79,3.79,0,0,1,1.45-.29,3.16,3.16,0,0,1,2.57,1.15A4.93,4.93,0,0,1,208.37,196.43Zm-1.66,0a3.78,3.78,0,0,0-.59-2.24,1.94,1.94,0,0,0-1.67-.83,2.62,2.62,0,0,0-1.25.3,4.19,4.19,0,0,0-1.06.87v4.1a3,3,0,0,0,.86.69,2.18,2.18,0,0,0,1.1.26,2.8,2.8,0,0,0,1-.18,2.18,2.18,0,0,0,.83-.56,3,3,0,0,0,.58-1A4.31,4.31,0,0,0,206.71,196.44Z"/><path class="b" d="M217.24,196.61h-6.06v.07a2.92,2.92,0,0,0,.76,2.16,2.85,2.85,0,0,0,2.08.75,6.4,6.4,0,0,0,1.22-.1,8.82,8.82,0,0,0,1.16-.36l.32,1.17a6,6,0,0,1-1.23.37,7.32,7.32,0,0,1-1.52.15,6,6,0,0,1-1.72-.25,3.76,3.76,0,0,1-1.41-.79,3.62,3.62,0,0,1-1-1.36,5.67,5.67,0,0,1-.05-3.78,4,4,0,0,1,.84-1.37,3.86,3.86,0,0,1,1.3-.89,4.66,4.66,0,0,1,1.72-.31,3.85,3.85,0,0,1,1.47.27,3.13,3.13,0,0,1,1.12.76,3.3,3.3,0,0,1,.72,1.17,4.27,4.27,0,0,1,.25,1.51Zm-1.63-1.14a3,3,0,0,0-.12-.87,2.07,2.07,0,0,0-.36-.71,1.67,1.67,0,0,0-.62-.49,2.13,2.13,0,0,0-.92-.18,2.15,2.15,0,0,0-1.61.63,2.9,2.9,0,0,0-.77,1.66Z"/><path class="b" d="M219,200.66V192.2h1.18l.27,1.69a2.87,2.87,0,0,1,1-1.32,2.75,2.75,0,0,1,1.62-.5,3.46,3.46,0,0,1,.78.07,3.55,3.55,0,0,1,.55.18l-.3,1.39a3.41,3.41,0,0,0-.48-.18,2.25,2.25,0,0,0-.62-.07,2.49,2.49,0,0,0-1,.18,2.19,2.19,0,0,0-.78.54,2.58,2.58,0,0,0-.52.89,3.49,3.49,0,0,0-.19,1.21v4.38Z"/><path class="b" d="M148.06,209.32h1.43v7.14h1.78v1.32h-1.78v2.88H148v-2.88h-5.4v-1Zm-3.67,7.14H148v-3.13l.09-2.27h0l-.88,1.53Z"/><path class="b" d="M160.52,216.17v1.1h-7.43v-1.1Z"/><path class="b" d="M166.82,209.15a6.15,6.15,0,0,1,2.18.36l-.38,1.28a4.8,4.8,0,0,0-.81-.26,4.59,4.59,0,0,0-.94-.1,3,3,0,0,0-1.38.3,2.85,2.85,0,0,0-1,.82,3.92,3.92,0,0,0-.63,1.26,5.86,5.86,0,0,0-.24,1.62,3,3,0,0,1,1.21-.93,3.72,3.72,0,0,1,1.47-.3,4.16,4.16,0,0,1,1.42.25,3.24,3.24,0,0,1,1.16.72,3.39,3.39,0,0,1,.78,1.16,3.84,3.84,0,0,1,.29,1.56,4.18,4.18,0,0,1-.3,1.62,3.54,3.54,0,0,1-.82,1.24,3.85,3.85,0,0,1-1.25.79,4.28,4.28,0,0,1-1.59.28,3.85,3.85,0,0,1-1.49-.3,3.51,3.51,0,0,1-1.29-.94,4.92,4.92,0,0,1-.91-1.67,7.73,7.73,0,0,1-.34-2.46,9,9,0,0,1,.41-2.94,5.31,5.31,0,0,1,1.08-1.94,3.87,3.87,0,0,1,1.54-1.08A5.12,5.12,0,0,1,166.82,209.15Zm-3.2,7.37a3.87,3.87,0,0,0,.17,1.2,3,3,0,0,0,.49,1,2.46,2.46,0,0,0,.78.66,2.07,2.07,0,0,0,1,.24,2.08,2.08,0,0,0,1.67-.75,2.81,2.81,0,0,0,.48-.85,3.27,3.27,0,0,0,.17-1.06,2.19,2.19,0,0,0-2.38-2.47,2.37,2.37,0,0,0-1.36.38,2.76,2.76,0,0,0-.83.88,1.41,1.41,0,0,0-.15.4A2.6,2.6,0,0,0,163.62,216.52Z"/></svg>