<svg xmlns="http://www.w3.org/2000/svg" viewBox="0 0 31 31"><defs><style>.a{fill:#fff;}</style></defs><title>Artboard 8</title><path class="a" d="M15.5.5a15,15,0,1,0,15,15A15,15,0,0,0,15.5.5Zm6.38,12.42v.38a8.42,8.42,0,0,1-13,7.1,5.37,5.37,0,0,0,.7,0,5.9,5.9,0,0,0,3.68-1.27,3,3,0,0,1-2.77-2.05,3.53,3.53,0,0,0,.56.05,3.33,3.33,0,0,0,.78-.1A3,3,0,0,1,9.5,14.16v0a2.77,2.77,0,0,0,1.34.37A2.94,2.94,0,0,1,9.52,12a3,3,0,0,1,.4-1.49A8.39,8.39,0,0,0,16,13.63,2.93,2.93,0,0,1,16,13a3,3,0,0,1,5.12-2A5.78,5.78,0,0,0,23,10.21a2.92,2.92,0,0,1-1.3,1.64,6,6,0,0,0,1.7-.46A6.11,6.11,0,0,1,21.88,12.92Z"/></svg>